<?xml version="1.0" encoding="UTF-8" standalone="no"?>
<!-- Created with Inkscape (http://www.inkscape.org/) -->

<svg
   xmlns:dc="http://purl.org/dc/elements/1.1/"
   xmlns:cc="http://creativecommons.org/ns#"
   xmlns:rdf="http://www.w3.org/1999/02/22-rdf-syntax-ns#"
   xmlns:svg="http://www.w3.org/2000/svg"
   xmlns="http://www.w3.org/2000/svg"
   xmlns:sodipodi="http://sodipodi.sourceforge.net/DTD/sodipodi-0.dtd"
   xmlns:inkscape="http://www.inkscape.org/namespaces/inkscape"
   width="64px"
   height="64px"
   id="svg4156"
   version="1.1"
   inkscape:version="0.48.4 r9939"
   sodipodi:docname="croc_unfinished.svg"
   inkscape:export-filename="/home/nattfari/sw6/pictocreator/source/PictoCreator/res/drawable-mdpi/croc_logo.png"
   inkscape:export-xdpi="145.34584"
   inkscape:export-ydpi="145.34584">
  <defs
     id="defs4158" />
  <sodipodi:namedview
     id="base"
     pagecolor="#ffffff"
     bordercolor="#666666"
     borderopacity="1.0"
     inkscape:pageopacity="0.0"
     inkscape:pageshadow="2"
     inkscape:zoom="7.7781746"
     inkscape:cx="21.271399"
     inkscape:cy="22.949193"
     inkscape:current-layer="layer1"
     showgrid="true"
     inkscape:document-units="px"
     inkscape:grid-bbox="true"
     inkscape:window-width="1871"
     inkscape:window-height="1056"
     inkscape:window-x="49"
     inkscape:window-y="24"
     inkscape:window-maximized="1" />
  <metadata
     id="metadata4161">
    <rdf:RDF>
      <cc:Work
         rdf:about="">
        <dc:format>image/svg+xml</dc:format>
        <dc:type
           rdf:resource="http://purl.org/dc/dcmitype/StillImage" />
        <dc:title></dc:title>
      </cc:Work>
    </rdf:RDF>
  </metadata>
  <g
     id="layer1"
     inkscape:label="Layer 1"
     inkscape:groupmode="layer">
    <path
       style="fill:none;stroke:#000000;stroke-width:0.98313141px;stroke-linecap:butt;stroke-linejoin:miter;stroke-opacity:1"
       d="m 16.644336,12.595922 c 2.289456,-2.8043046 2.418711,-4.9832337 10.456941,-5.8094159 19.092606,2.9594615 9.282148,22.0238629 6.07754,23.3270329 3.250795,-2.471 7.864796,-2.345403 10.456946,-10.188821 l 0.62563,3.038768 3.485643,-3.128141 -1.340628,3.932527 5.09441,0.893757 -3.843151,1.519384 2.681267,1.698135 -6.345671,1.072506 -8.669434,8.043802 1.340636,-1.161878 5.005035,7.418174 c 12.013134,5.337253 14.638723,-7.736533 9.652563,-14.657598 14.865119,10.342823 2.456927,29.10393 -12.95946,24.846412 -2.837462,-0.393377 -4.637972,0.694618 -5.809415,2.68127 -1.431116,0.708346 -2.666376,2.591856 -5.005032,-2.145013 -2.51102,1.247147 -5.115945,0.804058 -7.865051,-2.234392 -1.801134,1.976171 -3.500494,5.139697 -5.988168,-0.893756 l -3.485647,-11.797578 2.591891,1.430007 0.17875,-1.966263 c 1.737803,1.0064 2.997152,2.810222 4.021905,5.005033 l 0.893756,-0.62563 c 0.111631,-1.381553 0.696536,-2.999739 2.234392,-5.094404 L 12.890559,36.369828 8.2430269,37.352964 10.119911,35.297321 6.5448907,34.671694 9.5836608,33.24168 c 0,0 -1.6010921,-0.981597 -2.3160977,-1.607225 l 3.5673549,0.177219 -0.9785299,-3.300762 3.9279279,3.300762 9.384437,1.876884 0.357499,-1.608756 C 15.126389,31.83837 11.942275,24.817002 10.119911,21.622853 l 5.18379,-0.357501 c -2.539692,-2.662296 -2.428927,-4.113631 0,-6.077538 -0.27552,-0.643027 -2.309374,-0.640357 1.340635,-2.591892 z"
       id="path4280-5"
       inkscape:connector-curvature="0"
       sodipodi:nodetypes="ccccccccccccccccccccccccccccccccccccccccc" />
    <path
       style="fill:none;stroke:#000000;stroke-width:0.98313141px;stroke-linecap:butt;stroke-linejoin:miter;stroke-opacity:1"
       d="m 23.794381,19.835346 c 0.365998,-1.998774 1.236325,-3.676612 4.200654,-4.021905 1.957716,0.192638 3.319803,0.772236 3.932526,3.753778 0.08796,2.516709 -0.842769,3.674996 -3.843154,4.468775 -2.263104,-0.329867 -3.991605,-1.37143 -4.290026,-4.200648 z"
       id="path4282-0"
       inkscape:connector-curvature="0"
       sodipodi:nodetypes="ccccc" />
    <path
       style="fill:none;stroke:#000000;stroke-width:0.98313141px;stroke-linecap:butt;stroke-linejoin:miter;stroke-opacity:1"
       d="m 15.035574,15.366564 c 1.224273,-1.029794 5.091935,-0.07904 4.736902,2.59189 0.112654,2.049119 -1.963172,2.803529 -3.843148,3.217522 -4.701349,-2.401122 -1.159948,-5.450472 -0.893754,-5.809412 z"
       id="path4284-8"
       inkscape:connector-curvature="0"
       sodipodi:nodetypes="cccc" />
    <path
       style="fill:none;stroke:#000000;stroke-width:0.98313141px;stroke-linecap:butt;stroke-linejoin:miter;stroke-opacity:1"
       d="m 16.286829,29.487907 2.591892,-2.055638 2.41314,2.68127 1.340635,-2.234391 1.608763,1.161884 c 2.456124,0.03713 2.958291,-1.011293 3.306898,-2.145018"
       id="path4286-2"
       inkscape:connector-curvature="0"
       sodipodi:nodetypes="cccccc" />
    <path
       style="fill:none;stroke:#000000;stroke-width:0.98313141px;stroke-linecap:butt;stroke-linejoin:miter;stroke-opacity:1"
       d="m 15.80438,24.605203 c 0.423664,-1.108378 1.009858,-1.02731 1.603842,-0.889181 l 0.152069,1.235539"
       id="path4288-8"
       inkscape:connector-curvature="0"
       sodipodi:nodetypes="ccc" />
    <path
       style="fill:none;stroke:#000000;stroke-width:0.98313141px;stroke-linecap:butt;stroke-linejoin:miter;stroke-opacity:1"
       d="m 23.436882,16.885949 c -0.860759,-1.544244 1.94218,-4.711759 8.580052,-2.234393"
       id="path4290-6"
       inkscape:connector-curvature="0"
       sodipodi:nodetypes="cc" />
    <path
       style="fill:none;stroke:#000000;stroke-width:0.98313141px;stroke-linecap:butt;stroke-linejoin:miter;stroke-opacity:1"
       d="M 20.040605,14.204679 C 18.700162,12.766022 17.142169,12.853563 15.839951,13.132172"
       id="path4292-5"
       inkscape:connector-curvature="0"
       sodipodi:nodetypes="cc" />
    <path
       style="fill:none;stroke:#000000;stroke-width:0.98313141px;stroke-linecap:butt;stroke-linejoin:miter;stroke-opacity:1"
       d="m 41.6695,43.072997 c 2.754984,5.03611 0.985481,8.423403 -2.681265,10.367569"
       id="path4294-2"
       inkscape:connector-curvature="0"
       sodipodi:nodetypes="cc" />
    <path
       style="fill:none;stroke:#000000;stroke-width:0.98313141px;stroke-linecap:butt;stroke-linejoin:miter;stroke-opacity:1"
       d="m 18.431844,40.838611 c -1.092731,3.807858 -1.328967,7.396649 1.161883,10.725071"
       id="path4296-5"
       inkscape:connector-curvature="0"
       sodipodi:nodetypes="cc" />
    <path
       style="fill:none;stroke:#000000;stroke-width:0.98313141px;stroke-linecap:butt;stroke-linejoin:miter;stroke-opacity:1"
       d="m 23.079374,33.777937 -2.86002,3.932526"
       id="path4298-7"
       inkscape:connector-curvature="0" />
    <path
       style="fill:none;stroke:#000000;stroke-width:0.98313141px;stroke-linecap:butt;stroke-linejoin:miter;stroke-opacity:1"
       d="m 26.922529,6.607755 c 1.475749,-0.534848 4.711114,-0.838765 6.881917,-0.4468778 -1.55383,0.1384517 -1.807924,0.8467042 -1.698134,1.6981361 2.89352,-0.2980993 5.031518,0.4980224 5.809414,1.608761 l -1.161883,1.6981347"
       id="path4300-4"
       inkscape:connector-curvature="0"
       sodipodi:nodetypes="ccccc" />
    <path
       style="fill:none;stroke:#000000;stroke-width:0.98313141px;stroke-linecap:butt;stroke-linejoin:miter;stroke-opacity:1"
       d="m 38.273228,34.314189 c 1.658363,0.198639 2.595702,0.757791 3.306899,1.430011 -1.377448,0.547642 -2.785873,1.079787 -2.770649,2.323762 2.339376,-0.185642 4.063237,0.06837 4.736912,1.072507 -1.42506,0.657897 -2.326358,1.577674 -2.323773,2.949397 1.40022,-0.666561 2.800443,-1.08599 4.200656,-0.804377 -0.609904,1.072507 -0.305213,2.145013 0.268131,3.217519 0.298098,-1.1976 0.433668,-2.427698 1.876886,-3.396276 0.383058,0.95758 0.567059,2.114201 2.323761,1.698142 -0.04148,-1.148046 -0.966163,-2.001713 0.268131,-3.575026 0.734043,0.798566 1.619943,0.837864 2.591898,0.446878 -0.657626,-0.971732 -1.532369,-1.798719 -1.51939,-3.217519 1.379452,0.203846 2.399741,0.120362 2.591887,-0.625629 -1.118314,-0.211638 -2.338813,-0.25298 -2.770641,-1.608763 1.323892,-0.696118 1.407251,-1.569455 1.072509,-2.50252"
       id="path4304-5"
       inkscape:connector-curvature="0"
       sodipodi:nodetypes="ccccccccccccccc" />
    <path
       style="fill:none;stroke:#000000;stroke-width:0.98313141px;stroke-linecap:butt;stroke-linejoin:miter;stroke-opacity:1"
       d="m 12.354303,40.212981 c 2.479043,2.218734 2.519058,2.81146 2.949398,3.664399"
       id="path4306-0"
       inkscape:connector-curvature="0"
       sodipodi:nodetypes="cc" />
    <path
       style="fill:none;stroke:#000000;stroke-width:0.98313141px;stroke-linecap:butt;stroke-linejoin:miter;stroke-opacity:1"
       d="m 17.538093,43.430502 c -1.042716,0.486109 -2.085433,0.824406 -3.128149,1.072506"
       id="path4308-7"
       inkscape:connector-curvature="0"
       sodipodi:nodetypes="cc" />
    <path
       style="fill:none;stroke:#000000;stroke-width:0.98313141px;stroke-linecap:butt;stroke-linejoin:miter;stroke-opacity:1"
       d="m 33.625696,54.691823 c 0.09002,-3.228285 -0.0046,-6.210512 -0.625629,-8.49068 -0.463625,-2.234391 -0.427391,-4.468776 -0.178749,-6.703167 -0.763951,1.458734 -1.22478,2.462794 -2.413141,4.558154 -0.533907,-2.216096 -1.000521,-3.166207 -1.519385,-4.558154 -0.658157,1.310839 -1.15791,2.621682 -1.340635,3.932526 -1.155689,-1.732932 -2.017619,-2.290857 -2.949398,-3.128148 0.98988,5.168602 1.638614,6.584654 2.413141,9.384437 0.292772,2.987292 0.389985,4.018981 0.446879,4.647532"
       id="path4310-1"
       inkscape:connector-curvature="0"
       sodipodi:nodetypes="ccccccccc" />
    <path
       style="fill:none;stroke:#000000;stroke-width:0.98313141px;stroke-linecap:butt;stroke-linejoin:miter;stroke-opacity:1"
       d="m 18.610598,49.776169 c 1.217537,-0.881373 5.234081,-0.724034 7.865053,-0.268128"
       id="path4314-0"
       inkscape:connector-curvature="0"
       sodipodi:nodetypes="cc" />
    <path
       style="fill:none;stroke:#000000;stroke-width:0.98313141px;stroke-linecap:butt;stroke-linejoin:miter;stroke-opacity:1"
       d="m 17.895592,45.486137 c 2.090105,-0.70721 4.801781,-0.37848 7.596924,0.08938"
       id="path4316-2"
       inkscape:connector-curvature="0"
       sodipodi:nodetypes="cc" />
    <path
       style="fill:none;stroke:#000000;stroke-width:0.98313141px;stroke-linecap:butt;stroke-linejoin:miter;stroke-opacity:1"
       d="m 18.431844,41.821738 c 1.639889,-0.522914 4.217644,-0.72049 6.166915,-0.08938"
       id="path4320-8"
       inkscape:connector-curvature="0"
       sodipodi:nodetypes="cc" />
    <path
       style="fill:none;stroke:#000000;stroke-width:0.98313141px;stroke-linecap:butt;stroke-linejoin:miter;stroke-opacity:1"
       d="m 20.308733,37.889212 c 1.920882,-0.652658 5.905239,-0.353471 8.758808,0.715007"
       id="path4322-6"
       inkscape:connector-curvature="0"
       sodipodi:nodetypes="cc" />
    <path
       style="fill:none;stroke:#000000;stroke-width:0.98313141px;stroke-linecap:butt;stroke-linejoin:miter;stroke-opacity:1"
       d="m 22.900624,34.046066 c 6.723406,-1.658624 6.675334,3.358572 6.256294,5.183781"
       id="path4324-6"
       inkscape:connector-curvature="0"
       sodipodi:nodetypes="cc" />
    <path
       style="fill:none;stroke:#000000;stroke-width:0.98313141px;stroke-linecap:butt;stroke-linejoin:miter;stroke-opacity:1"
       d="m 23.883761,20.282224 c 2.921579,2.16848 7.623671,0.476656 5.54128,-4.111281"
       id="path4326-6"
       inkscape:connector-curvature="0"
       sodipodi:nodetypes="cc" />
    <path
       style="fill:none;stroke:#000000;stroke-width:1.19471693px;stroke-linecap:butt;stroke-linejoin:miter;stroke-opacity:1"
       d="m 14.068857,19.345537 c 2.812943,1.155492 5.009734,-0.745332 4.346572,-3.694431"
       id="path4328-2"
       inkscape:connector-curvature="0"
       sodipodi:nodetypes="cc" />
    <path
       style="fill:#d5ffd5;fill-opacity:1;stroke:#000000;stroke-width:0.09090909;stroke-opacity:1"
       d="m 27.958115,37.692803 c -1.568023,-0.44712 -2.784812,-0.602877 -4.745383,-0.607441 l -1.836292,-0.0043 0.135326,-0.206809 c 0.07443,-0.113745 0.485123,-0.686472 0.912654,-1.272728 l 0.777329,-1.065918 0.514547,-0.113898 c 0.283,-0.06264 0.927354,-0.118576 1.431898,-0.124293 1.500235,-0.017 2.442638,0.369094 3.016832,1.235969 0.335545,0.506582 0.588957,1.408877 0.54969,1.957225 l -0.02933,0.409548 -0.727273,-0.207381 z"
       id="path5250"
       inkscape:connector-curvature="0" />
    <path
       style="fill:#d5ffd5;fill-opacity:1;stroke:#000000;stroke-width:0.09090909;stroke-opacity:1"
       d="m 26.821752,41.648317 c -0.455778,-0.512192 -2.88442,-2.703593 -2.996284,-2.703593 -0.03926,0 0.02695,0.455526 0.147141,1.012279 0.120188,0.556754 0.200781,1.030022 0.179095,1.051707 -0.02168,0.02169 -0.275945,-0.0043 -0.565022,-0.05773 -0.74311,-0.137371 -3.038875,-0.114896 -3.897933,0.03816 -0.398152,0.07094 -0.74391,0.10898 -0.768352,0.08454 -0.065,-0.065 0.587118,-1.350765 1.04119,-2.052882 0.379074,-0.586152 0.408888,-0.609684 0.921412,-0.727273 0.350311,-0.08037 1.145324,-0.120551 2.347844,-0.118657 1.482356,0.0023 2.011281,0.0396 2.863636,0.201756 1.14499,0.217827 2.363636,0.55882 2.363636,0.661375 0,0.03581 -0.178234,0.469243 -0.396077,0.963191 -0.217843,0.493947 -0.487087,1.174223 -0.598321,1.511723 -0.111234,0.3375 -0.209136,0.609474 -0.217559,0.604386 -0.0084,-0.0051 -0.199406,-0.216126 -0.424406,-0.468975 z"
       id="path5252"
       inkscape:connector-curvature="0" />
    <path
       style="fill:#d5ffd5;fill-opacity:1;stroke:#000000;stroke-width:0.09090909;stroke-opacity:1"
       d="m 23.958115,44.801313 c -1.591159,-0.266174 -4.905967,-0.260653 -5.609566,0.0093 -0.151844,0.05827 -0.138004,-0.197166 0.08307,-1.533093 0.1689,-1.020639 0.128421,-0.981999 1.253768,-1.196833 1.46628,-0.27992 3.172009,-0.253697 4.371851,0.06721 l 0.39661,0.106077 0.147472,0.686261 c 0.08111,0.377444 0.221073,0.982852 0.311029,1.345352 l 0.163556,0.659091 -0.195259,-0.01087 c -0.107392,-0.006 -0.522532,-0.06562 -0.922532,-0.132536 z"
       id="path5254"
       inkscape:connector-curvature="0" />
    <path
       style="fill:#d5ffd5;fill-opacity:1;stroke:#000000;stroke-width:0.09090909;stroke-opacity:1"
       d="m 18.74821,48.883593 c -0.143027,-0.27162 -0.457691,-1.666201 -0.521693,-2.312127 l -0.0595,-0.600531 0.41613,-0.104783 c 0.852497,-0.214661 2.219641,-0.296881 3.315637,-0.199401 1.692867,0.150565 3.323199,0.385258 3.438145,0.494935 0.0847,0.08081 0.848462,2.509443 0.848462,2.69795 0,0.02722 -0.439773,-0.008 -0.977273,-0.07819 -1.441445,-0.188329 -4.514751,-0.178174 -5.413747,0.01789 -0.390061,0.08507 -0.765332,0.176209 -0.833937,0.202535 -0.0686,0.02633 -0.164104,-0.0269 -0.212221,-0.118276 l 0,0 z"
       id="path5256"
       inkscape:connector-curvature="0" />
    <path
       style="fill:#d5ffd5;fill-opacity:1;stroke:#000000;stroke-width:0.09090909;stroke-opacity:1"
       d="m 24.288002,54.026771 c -1.126412,-0.193137 -2.223931,-0.79986 -3.355159,-1.854774 -0.69571,-0.648777 -1.730001,-2.002303 -1.61666,-2.115644 0.02345,-0.02345 0.279754,-0.100193 0.569559,-0.170535 1.143283,-0.277498 3.855397,-0.24499 5.988923,0.07178 l 0.643822,0.09559 0.162599,1.771163 c 0.106009,1.154743 0.131642,1.802119 0.07365,1.86011 -0.258531,0.258532 -1.749025,0.465365 -2.466734,0.342305 l 0,0 z"
       id="path5258"
       inkscape:connector-curvature="0" />
    <path
       style="fill:#55ff55;fill-opacity:1;stroke:#000000;stroke-width:0.09090909000000000;stroke-opacity:1"
       d="m 34.157256,51.649269 c -0.05835,-1.994911 -0.237485,-3.844474 -0.469035,-4.842896 -0.338178,-1.458192 -0.445094,-2.470175 -0.451207,-4.27074 -0.0034,-1 0.02531,-2.091006 0.06379,-2.424459 l 0.06996,-0.606276 -0.47905,-0.141792 c -0.396662,-0.117406 -0.494686,-0.120982 -0.56996,-0.0208 -0.05,0.06655 -0.457479,0.820696 -0.90551,1.675885 l -0.814601,1.55489 -0.37863,-1.064181 c -0.208248,-0.585299 -0.46554,-1.280467 -0.571763,-1.544818 -0.226365,-0.563341 -0.236104,-0.655726 -0.06912,-0.655726 0.155377,0 0.239629,-0.573076 0.239629,-1.629952 0,-1.858743 -0.752909,-3.279184 -2.09368,-3.949944 -0.866344,-0.433414 -1.460283,-0.538732 -2.788759,-0.494505 -0.614659,0.02046 -1.117561,0.0267 -1.117561,0.01387 0,-0.01283 0.08182,-0.374231 0.181818,-0.803104 0.1,-0.428873 0.181818,-0.794966 0.181818,-0.813542 0,-0.01857 -0.357955,-0.0607 -0.795455,-0.09361 -1.252068,-0.09418 -2.449138,-0.308534 -3.386363,-0.606377 -0.844314,-0.268315 -2.302018,-0.938431 -2.708746,-1.245227 l -0.204163,-0.154 0.817857,-0.634533 c 0.449822,-0.348992 0.855002,-0.634532 0.9004,-0.634532 0.0454,0 0.62556,0.604675 1.289246,1.343722 0.663688,0.739049 1.241997,1.33196 1.285132,1.317581 0.04314,-0.01438 0.378115,-0.527746 0.744397,-1.140816 l 0.66597,-1.114674 0.625734,0.456184 c 0.57487,0.419103 0.667201,0.456185 1.135866,0.456185 0.676474,0 1.803878,-0.29556 2.24767,-0.589247 0.432296,-0.28608 0.855676,-0.857127 1.10562,-1.491243 0.139822,-0.35473 0.157601,-0.480919 0.07211,-0.511824 -0.541699,-0.195836 -0.91752,-0.314759 -0.932327,-0.295021 -0.0098,0.01303 -0.06589,0.165996 -0.124693,0.339916 -0.288263,0.852591 -0.922057,1.31648 -1.932754,1.41463 l -0.578232,0.05615 -0.942988,-0.687416 c -0.518642,-0.37808 -0.974208,-0.668122 -1.012366,-0.644538 -0.03816,0.02358 -0.323882,0.472891 -0.634941,0.998461 -0.311059,0.525571 -0.593161,0.955584 -0.626893,0.955584 -0.03373,0 -0.530481,-0.528999 -1.10389,-1.175553 -0.573407,-0.646553 -1.087473,-1.178371 -1.142369,-1.181818 -0.0549,-0.0034 -0.69969,0.46725 -1.432875,1.045991 l -1.333066,1.052256 -0.339851,-0.270584 c -0.482548,-0.384197 -1.628418,-1.592886 -2.169534,-2.288474 -1.081615,-1.390381 -2.684494,-4.060687 -2.504314,-4.172044 0.05917,-0.03657 1.242615,-0.14093 2.629879,-0.231914 1.387264,-0.09098 2.542753,-0.19369 2.567753,-0.228235 0.025,-0.03455 0.311364,-0.135057 0.636364,-0.223358 1.535657,-0.41723 2.774918,-1.326062 3.114513,-2.284081 0.246196,-0.694537 0.242398,-2.053757 -0.0073,-2.617808 -0.499516,-1.128313 -1.597317,-1.850288 -3.139242,-2.064542 -0.388055,-0.05392 -0.819162,-0.05861 -1.070326,-0.01163 -0.339248,0.06345 -0.459763,0.04908 -0.623351,-0.07431 l -0.202795,-0.152969 0.386333,-0.284112 c 0.42765,-0.314497 0.917379,-0.428788 1.814914,-0.423558 0.775384,0.0045 1.433663,0.238146 1.948903,0.691678 0.229844,0.202317 0.474222,0.346236 0.543062,0.31982 0.06884,-0.02642 0.237639,-0.195493 0.37511,-0.375726 l 0.249946,-0.327697 -0.217602,-0.233959 c -0.528421,-0.568146 -1.690835,-1.123736 -2.351097,-1.123736 -0.151577,0 -0.275595,-0.0408 -0.275595,-0.09066 0,-0.187741 1.330432,-1.889185 1.962314,-2.5095372 1.287901,-1.2644001 3.289576,-2.0082123 6.548214,-2.4332826 0.973252,-0.1269551 1.049421,-0.1240871 2.064978,0.077753 4.786305,0.9512707 8.036888,3.2733708 9.255179,6.6115678 0.479635,1.314231 0.577703,1.95295 0.576267,3.753251 -0.0015,1.9278 -0.177613,2.975309 -0.832476,4.952559 -1.010893,3.052219 -2.545735,5.584926 -4.050519,6.683935 l -0.248772,0.181688 0.282257,0.431818 c 0.155241,0.2375 0.311665,0.431819 0.347608,0.431819 0.03594,0 0.286784,-0.158216 0.557424,-0.35159 0.270639,-0.193374 1.310254,-0.773279 2.310254,-1.288677 2.317083,-1.194219 3.15867,-1.746486 4.214534,-2.765669 1.013528,-0.978318 1.72013,-1.930197 2.433857,-3.278706 l 0.52612,-0.99405 0.195481,0.978143 c 0.107515,0.537979 0.21731,0.999973 0.24399,1.026652 0.02668,0.02668 0.593837,-0.442526 1.260349,-1.042681 0.666512,-0.600154 1.22738,-1.075652 1.246371,-1.05666 0.01899,0.01899 -0.137597,0.551039 -0.347975,1.182328 -0.210378,0.63129 -0.368033,1.16208 -0.350344,1.179536 0.01769,0.01746 0.645798,0.138737 1.395798,0.269514 0.75,0.130778 1.586485,0.282137 1.858854,0.336352 l 0.495217,0.09858 -1.423704,0.558012 c -0.783037,0.306905 -1.429167,0.59892 -1.435845,0.64892 -0.0067,0.05 0.490006,0.407954 1.103738,0.795454 0.613733,0.3875 1.098379,0.706421 1.076991,0.708713 -0.02139,0.0023 -1.171888,0.19661 -2.556667,0.431818 l -2.517781,0.427651 -4.015929,3.727273 c -2.208761,2.05 -4.195064,3.890909 -4.414007,4.090909 l -0.398077,0.363636 0.355087,0.407777 0.355086,0.407778 0.468348,-0.394918 c 0.257592,-0.217204 0.480346,-0.38025 0.495009,-0.362322 0.01466,0.01793 1.060153,1.566685 2.323312,3.441685 1.263158,1.875 2.390611,3.542712 2.505448,3.706027 0.26237,0.373124 0.739907,1.6827 0.912112,2.501338 0.50652,2.407911 -0.445816,4.556342 -2.683021,6.052784 l -0.799872,0.535027 -1.065128,-0.047 c -1.266771,-0.0559 -2.123432,0.07333 -2.9472,0.444618 -0.319415,0.143966 -0.589166,0.261756 -0.599447,0.261756 -0.01028,0 -0.04412,-0.869319 -0.0752,-1.931819 l 0,0 z M 18.070699,24.907898 c 0.01705,-0.01705 -0.01631,-0.39979 -0.07411,-0.850543 l -0.105103,-0.819551 -0.330321,-0.05463 c -0.940393,-0.155528 -1.470766,-0.0097 -1.859668,0.511454 -0.480091,0.643308 -0.479279,0.674173 0.02445,0.929434 0.249367,0.126365 0.471168,0.229753 0.492892,0.229753 0.02172,0 0.123976,-0.143182 0.227229,-0.318182 0.296911,-0.503227 0.552428,-0.36176 0.556258,0.307971 0.0012,0.210448 0.01703,0.215206 0.519311,0.156174 0.284938,-0.03349 0.532015,-0.07484 0.54906,-0.09188 l 0,0 z m 10.718749,-0.518775 c 2.100683,-0.647061 3.279752,-1.748968 3.577278,-3.343171 0.293322,-1.571677 -0.19781,-3.337682 -1.241828,-4.465345 -1.348413,-1.456448 -3.725058,-1.65877 -5.685357,-0.483993 -0.944416,0.565974 -1.682954,1.653652 -2.024008,2.980846 -0.170415,0.663158 -0.171079,0.838467 -0.0061,1.616875 0.404219,1.907467 1.715398,3.199303 3.756602,3.701183 0.89714,0.220583 0.886416,0.220625 1.623436,-0.0064 l 5e-6,-4e-6 z m -5.376787,-7.435356 0.454545,-0.172627 0,-0.455224 c 0,-0.581814 0.330897,-1.016874 1.095761,-1.440696 1.396689,-0.773926 3.740896,-0.769486 6.033798,0.01143 0.371258,0.126442 0.725368,0.229895 0.786909,0.229895 0.09478,0 0.401714,-0.703702 0.401714,-0.921017 0,-0.03875 -0.378409,-0.191489 -0.840909,-0.339431 -2.575646,-0.823881 -4.960181,-0.858094 -6.608477,-0.09482 -1.438023,0.665907 -2.214505,1.876568 -1.915578,2.986698 0.05458,0.202711 0.107895,0.368531 0.118468,0.368491 0.01057,-4e-5 0.223769,-0.07776 0.473769,-0.172701 z"
       id="path5260"
       inkscape:connector-curvature="0" />
    <path
       style="fill:#55ff55;fill-opacity:1;stroke:#000000;stroke-width:0.09090909;stroke-opacity:1"
       d="m 18.549024,36.942997 c -0.675,-0.140877 -2.233252,-0.450285 -3.462783,-0.687574 l -2.23551,-0.431433 -1.426297,0.300075 c -0.784463,0.165041 -1.4464126,0.279959 -1.4709987,0.255373 -0.024586,-0.02459 0.2280127,-0.33926 0.5613317,-0.699275 0.334894,-0.361716 0.569641,-0.686999 0.524691,-0.727051 -0.04474,-0.03986 -0.664609,-0.168201 -1.3774901,-0.285195 -0.712881,-0.116994 -1.2651538,-0.238 -1.2272727,-0.268901 0.037881,-0.0309 0.5393291,-0.273975 1.1143291,-0.540163 0.5749997,-0.266188 1.0770497,-0.512129 1.1156647,-0.546537 0.03862,-0.03441 -0.35002,-0.296688 -0.8636361,-0.582846 l -0.9338468,-0.520288 0.7272728,0.05253 c 0.4,0.02889 1.0034091,0.07581 1.3409091,0.10427 0.340583,0.02872 0.613636,0.0154 0.613636,-0.02992 0,-0.04492 -0.163261,-0.567626 -0.362802,-1.161576 -0.199541,-0.59395 -0.344029,-1.098682 -0.321085,-1.121627 0.02294,-0.02294 0.36007,0.241452 0.749166,0.587548 0.389097,0.346096 0.978875,0.863832 1.310617,1.150524 l 0.603169,0.521259 4.297129,0.860507 c 2.363421,0.473279 4.310305,0.873683 4.326409,0.889787 0.04509,0.04509 -2.242591,3.156218 -2.313184,3.145816 -0.03418,-0.005 -0.614419,-0.12442 -1.289419,-0.265297 l 0,0 z"
       id="path5262"
       inkscape:connector-curvature="0" />
    <path
       style="fill:#55ff55;fill-opacity:1;stroke:#000000;stroke-width:0.09090909;stroke-opacity:1"
       d="m 16.215113,53.675181 c -0.46625,-0.208746 -0.88211,-0.748633 -1.493565,-1.939012 -0.409033,-0.796303 -0.689341,-1.649517 -2.03635,-6.198338 -0.859114,-2.901209 -1.550454,-5.289544 -1.536311,-5.30741 0.01414,-0.01787 0.244797,0.09286 0.512566,0.246063 0.623702,0.356846 2.397872,2.179276 2.7345,2.808883 0.254876,0.476704 0.258018,0.659357 0.01134,0.659357 -0.07205,0 -0.130999,0.06685 -0.130999,0.148544 0,0.118649 0.175896,0.830373 0.226874,0.917996 0.01715,0.02948 1.73388,-0.473133 2.216374,-0.648901 0.218786,-0.0797 0.41393,-0.144912 0.433653,-0.144912 0.01972,0 0.0092,0.379415 -0.02341,0.843144 -0.145653,2.072081 0.513,4.620883 1.603823,6.206338 l 0.283056,0.411408 -0.544202,0.610464 c -0.813529,0.912587 -1.206533,1.268788 -1.564293,1.417805 -0.293057,0.122068 -0.356659,0.119183 -0.693062,-0.03143 l 0,0 z"
       id="path5264"
       inkscape:connector-curvature="0" />
    <path
       style="fill:#55ff55;fill-opacity:1;stroke:#000000;stroke-width:0.09090909;stroke-opacity:1"
       d="m 15.425772,42.90693 c -0.363612,-0.687979 -1.029778,-1.522181 -1.672202,-2.094005 -0.341971,-0.304389 -0.386364,-0.389076 -0.386364,-0.737051 0,-0.216231 0.04868,-0.42323 0.108166,-0.459997 0.151112,-0.09339 1.231026,1.080737 1.83593,1.996104 0.426049,0.644717 0.964995,1.610869 0.964995,1.729918 0,0.02177 -0.113942,0.07931 -0.253205,0.127852 -0.246418,0.0859 -0.262431,0.07081 -0.59732,-0.562821 z"
       id="path5266"
       inkscape:connector-curvature="0" />
    <path
       style="fill:#55ff55;fill-opacity:1;stroke:#000000;stroke-width:0.09090909;stroke-opacity:1"
       d="m 30.000105,56.376542 c -0.474509,-0.239281 -1.126665,-1.058653 -1.698918,-2.13453 l -0.37572,-0.706379 -0.195497,-2 C 27.541479,49.607309 27.513713,49.465586 26.955219,47.581088 26.291453,45.341374 25.68484,43.017039 25.590987,42.353815 l -0.06432,-0.454546 0.295268,0.272728 c 0.162398,0.15 0.678017,0.779232 1.14582,1.398293 0.501975,0.664284 0.867868,1.074107 0.892806,1 0.02324,-0.06906 0.130376,-0.572851 0.238079,-1.119534 0.190313,-0.966003 0.58191,-2.294185 0.720427,-2.443474 0.07988,-0.08609 0.669861,1.676564 1.097305,3.278351 0.163448,0.6125 0.321525,1.112907 0.351281,1.112016 0.02976,-8.91e-4 0.442738,-0.727027 0.917738,-1.613636 l 0.863636,-1.612016 0.07258,1.136363 c 0.07385,1.156276 0.305164,2.80585 0.554526,3.954546 0.242409,1.116663 0.418348,3.371067 0.418348,5.360526 l 0,1.925962 -0.231409,0.217397 c -0.127274,0.119568 -0.337303,0.384781 -0.46673,0.58936 -0.129427,0.20458 -0.362793,0.447232 -0.518591,0.539226 -0.50271,0.296833 -1.280605,0.683375 -1.377644,0.684559 -0.05191,6.36e-4 -0.276905,-0.09089 -0.5,-0.203394 l 0,0 z"
       id="path5268"
       inkscape:connector-curvature="0" />
    <path
       style="fill:#55ff55;fill-opacity:1;stroke:#000000;stroke-width:0.09090909;stroke-opacity:1"
       d="m 41.185388,53.445881 c -0.075,-0.01898 -0.297333,-0.06095 -0.494074,-0.09328 l -0.357711,-0.05878 0.312256,-0.240686 c 1.361822,-1.049687 2.310181,-2.382153 2.687192,-3.775561 0.332883,-1.230313 0.221441,-3.012703 -0.273646,-4.376652 -0.187436,-0.51638 -0.197634,-0.596268 -0.06956,-0.544871 0.08255,0.03312 0.579629,0.165031 1.104629,0.293125 0.525,0.128094 1.007717,0.246492 1.072705,0.263107 0.06499,0.01661 0.228625,0.274814 0.363637,0.573776 0.135012,0.298962 0.269648,0.544919 0.299192,0.546572 0.02954,0.0017 0.104068,-0.221995 0.16561,-0.496995 l 0.111895,-0.5 0.652571,-0.0018 c 3.610878,-0.01 6.188274,-2.136906 7.137336,-5.889937 0.103499,-0.409284 0.236386,-1.265851 0.295304,-1.903481 0.05892,-0.637629 0.163186,-1.269795 0.231709,-1.404812 0.167575,-0.33019 0.156897,-0.436334 -0.04389,-0.436334 -0.143872,0 -0.176862,-0.09917 -0.225876,-0.679009 -0.07288,-0.862186 -0.341991,-2.098803 -0.652527,-2.998509 -0.132978,-0.38527 -0.225626,-0.716641 -0.205886,-0.736381 0.07172,-0.07172 1.072035,1.025609 1.703269,1.868445 0.689094,0.920091 1.60436,2.66263 1.909997,3.636363 0.697537,2.222302 0.714015,4.566313 0.04825,6.863637 -0.24939,0.860562 -0.948914,2.413897 -1.432888,3.181818 -1.903603,3.020445 -4.942498,5.327899 -8.339497,6.332236 -1.485501,0.439196 -2.27242,0.551196 -4.090909,0.582248 -0.975,0.01665 -1.834091,0.01474 -1.909091,-0.0042 l 0,10e-7 z"
       id="path5270"
       inkscape:connector-curvature="0" />
    <path
       style="fill:#008000;fill-opacity:1;stroke:#000000;stroke-width:0.09090909000000000;stroke-opacity:1"
       d="M 36.13106,10.203978 C 35.730113,9.7884136 34.962168,9.1775271 34.256433,8.7127457 l -0.47599,-0.3134764 0.415203,0 c 0.551586,0 1.683649,0.2957083 2.231025,0.5827701 0.473864,0.24851 0.758717,0.4500655 0.758717,0.5368515 0,0.029768 -0.157402,0.2788216 -0.349782,0.5534531 l -0.349782,0.499331 -0.354764,-0.367697 0,0 z"
       id="path5272"
       inkscape:connector-curvature="0" />
    <path
       style="fill:#008000;fill-opacity:1;stroke:#000000;stroke-width:0.09090909;stroke-opacity:1"
       d="M 31.433417,7.3442681 C 31.399555,7.3104064 30.934405,7.1502253 30.399749,6.9883102 29.289672,6.6521347 29.316895,6.6218911 30.811014,6.5314045 c 0.822077,-0.049787 1.020147,-0.039089 0.963816,0.052056 -0.03899,0.063096 -0.117914,0.2739427 -0.175373,0.4685474 -0.05746,0.1946048 -0.132178,0.3261218 -0.16604,0.29226 z"
       id="path5274"
       inkscape:connector-curvature="0" />
    <path
       style="fill:#008000;fill-opacity:1;stroke:#000000;stroke-width:0.09090909;stroke-opacity:1"
       d="m 37.829278,36.592552 -0.469942,-0.715809 0.517552,-0.497354 0.517553,-0.497353 0.50911,0.112419 c 0.614647,0.135724 1.073939,0.297907 1.353127,0.477809 0.205359,0.132329 0.202172,0.136573 -0.288349,0.383997 -0.691844,0.348973 -1.065047,0.652235 -1.329006,1.079938 -0.124664,0.201999 -0.252186,0.368371 -0.283383,0.369716 -0.0312,0.0013 -0.268194,-0.319669 -0.526662,-0.713363 z"
       id="path5276"
       inkscape:connector-curvature="0" />
    <path
       style="fill:#008000;fill-opacity:1;stroke:#000000;stroke-width:0.09090909;stroke-opacity:1"
       d="m 39.963945,39.750987 -0.795206,-1.193737 1.258325,0.04724 c 0.851594,0.03197 1.397901,0.09736 1.690142,0.202283 0.382939,0.137488 0.580222,0.319764 0.346091,0.319764 -0.177883,0 -1.166678,1.00932 -1.376772,1.40535 -0.120454,0.227057 -0.243389,0.412832 -0.27319,0.412832 -0.0298,0 -0.412026,-0.537182 -0.84939,-1.193737 z"
       id="path5278"
       inkscape:connector-curvature="0" />
    <path
       style="fill:#008000;fill-opacity:1;stroke:#000000;stroke-width:0.09090909;stroke-opacity:1"
       d="m 43.367206,43.302916 c -0.575,-0.202375 -1.108845,-0.388839 -1.186323,-0.414365 -0.07748,-0.02553 -0.193748,-0.131085 -0.258379,-0.234576 -0.09668,-0.154805 -0.09588,-0.201802 0.0045,-0.265092 0.309046,-0.194848 1.54355,-0.549071 2.07855,-0.596409 l 0.592899,-0.05246 -0.002,0.670538 c -0.0011,0.368796 0.02767,0.803492 0.06392,0.965992 0.08706,0.390284 0.01291,0.386062 -1.293182,-0.07363 z"
       id="path5280"
       inkscape:connector-curvature="0" />
    <path
       style="fill:#008000;fill-opacity:1;stroke:#000000;stroke-width:0.09090909;stroke-opacity:1"
       d="m 46.41775,43.740178 c 0.18513,-0.603028 0.417716,-1.114455 0.638432,-1.403828 l 0.247816,-0.324904 0.133114,0.262094 c 0.337879,0.66526 1.004029,1.122364 1.645742,1.129288 l 0.329807,0.0036 -0.28044,0.122104 c -0.48863,0.212749 -1.552145,0.416234 -2.175451,0.416234 -0.582106,0 -0.599759,-0.0067 -0.53902,-0.204546 z"
       id="path5282"
       inkscape:connector-curvature="0" />
    <path
       style="fill:#008000;fill-opacity:1;stroke:#000000;stroke-width:0.09090909;stroke-opacity:1"
       d="m 50.409589,42.514121 c -0.02893,-0.138168 -0.111665,-0.505077 -0.183855,-0.815353 -0.152005,-0.653322 -0.166554,-1.103911 -0.04589,-1.421281 l 0.08537,-0.224529 0.367514,0.181832 c 0.258356,0.127824 0.557021,0.183018 1.005544,0.185826 0.350916,0.0022 0.638029,0.03138 0.638029,0.06485 0,0.271013 -1.107023,1.757096 -1.556403,2.089338 l -0.257705,0.190529 -0.0526,-0.251216 0,0 z"
       id="path5284"
       inkscape:connector-curvature="0" />
    <path
       style="fill:#008000;fill-opacity:1;stroke:#000000;stroke-width:0.09090909;stroke-opacity:1"
       d="m 52.472081,38.328926 c -0.212885,-0.313487 -0.441389,-0.723952 -0.507787,-0.912145 l -0.120724,-0.342169 0.655382,-0.01954 0.655383,-0.01954 -0.08188,0.61369 c -0.04503,0.337529 -0.11145,0.756789 -0.147595,0.931688 l -0.06572,0.317997 -0.387063,-0.569975 z"
       id="path5286"
       inkscape:connector-curvature="0" />
    <path
       style="fill:#008000;fill-opacity:1;stroke:#000000;stroke-width:0.09090909;stroke-opacity:1"
       d="m 52.517678,34.993938 c -0.192241,-0.06854 -0.444687,-0.214021 -0.560991,-0.323283 l -0.211463,-0.198659 0.325397,-0.285702 c 0.178968,-0.157135 0.413791,-0.476493 0.52183,-0.709683 l 0.196433,-0.423982 0.105029,0.514229 c 0.05777,0.282826 0.132157,0.749457 0.165314,1.036957 0.06773,0.587236 0.04904,0.600697 -0.541549,0.390123 z"
       id="path5288"
       inkscape:connector-curvature="0" />
    <path
       style="fill:#b3b3b3;fill-opacity:1;stroke:#000000;stroke-width:0.09090909000000000;stroke-opacity:1"
       d="m 25.662722,20.536857 c -0.599664,-0.168171 -1.198421,-0.470235 -1.262353,-0.636838 -0.131999,-0.343984 0.4931,-1.823186 1.014223,-2.400007 0.693846,-0.768005 2.240915,-1.256719 3.304735,-1.043955 0.256678,0.05134 0.301409,0.113351 0.465909,0.64594 0.216476,0.700867 0.235503,1.601491 0.04354,2.060923 -0.210919,0.5048 -0.719606,1.009937 -1.248693,1.239976 -0.603037,0.262192 -1.645276,0.322441 -2.317361,0.133961 l 0,0 z"
       id="path5294"
       inkscape:connector-curvature="0" />
    <path
       style="fill:#b3b3b3;fill-opacity:1;stroke:#000000;stroke-width:0.09090909;stroke-opacity:1"
       d="m 14.662661,18.877543 -0.568182,-0.142885 0.002,-0.508603 c 0.0023,-0.592231 0.18243,-1.032582 0.704691,-1.722947 0.565474,-0.747488 0.929356,-0.967475 1.600304,-0.967475 0.306155,0 0.74745,0.05547 0.980655,0.123265 l 0.424009,0.123264 0.05915,0.513099 c 0.100918,0.875364 -0.143807,1.638649 -0.69521,2.168324 -0.580513,0.557638 -1.398843,0.692738 -2.507417,0.413958 z"
       id="path5296"
       inkscape:connector-curvature="0" />
    <path
       style="fill:#ffffff;fill-opacity:1;stroke:#000000;stroke-width:0.09090909;stroke-opacity:1"
       d="m 27.199369,23.27886 c -0.874353,-0.290036 -1.189338,-0.460477 -1.653698,-0.894831 -0.38944,-0.364276 -0.799403,-0.929534 -0.674161,-0.929534 0.02225,0 0.299405,0.06634 0.615909,0.147426 0.416367,0.106668 0.814245,0.134991 1.439161,0.102448 1.30784,-0.06811 2.202397,-0.485301 2.84367,-1.326193 0.502891,-0.659435 0.639289,-1.105245 0.648458,-2.11946 0.0044,-0.482678 0.03332,-0.861948 0.06434,-0.842822 0.12944,0.0798 0.706033,1.393775 0.809444,1.844609 0.124971,0.544832 0.08239,1.398509 -0.09985,2.00197 -0.248196,0.821849 -1.158427,1.55095 -2.521886,2.020049 -0.610114,0.20991 -0.829184,0.209365 -1.471384,-0.0037 z"
       id="path5298"
       inkscape:connector-curvature="0" />
    <path
       style="fill:#ffffff;fill-opacity:1;stroke:#000000;stroke-width:0.09090909;stroke-opacity:1"
       d="m 15.751113,20.460306 c -0.09507,-0.06017 -0.03392,-0.09813 0.227273,-0.141099 0.196541,-0.03233 0.480074,-0.08088 0.630074,-0.107885 0.460272,-0.08287 1.314798,-0.587947 1.654168,-0.977722 0.41588,-0.477649 0.736876,-1.160584 0.814856,-1.733651 0.05415,-0.397951 0.07004,-0.424298 0.127572,-0.21161 0.03615,0.133614 0.03356,0.535933 -0.0058,0.89404 -0.05725,0.521526 -0.124821,0.717423 -0.339534,0.984338 -0.382294,0.475238 -0.940729,0.825077 -1.78768,1.119916 -0.769662,0.267933 -1.102809,0.311733 -1.320975,0.173673 l 0,0 z"
       id="path5300"
       inkscape:connector-curvature="0" />
  </g>
</svg>
