<?xml version="1.0" encoding="UTF-8" standalone="no"?>
<!-- Created with Inkscape (http://www.inkscape.org/) -->

<svg
   xmlns:dc="http://purl.org/dc/elements/1.1/"
   xmlns:cc="http://creativecommons.org/ns#"
   xmlns:rdf="http://www.w3.org/1999/02/22-rdf-syntax-ns#"
   xmlns:svg="http://www.w3.org/2000/svg"
   xmlns="http://www.w3.org/2000/svg"
   xmlns:xlink="http://www.w3.org/1999/xlink"
   xmlns:sodipodi="http://sodipodi.sourceforge.net/DTD/sodipodi-0.dtd"
   xmlns:inkscape="http://www.inkscape.org/namespaces/inkscape"
   width="64px"
   height="64px"
   id="svg3963"
   version="1.1"
   inkscape:version="0.48.4 r9939"
   sodipodi:docname="cancel_button.svg"
   inkscape:export-filename="/home/nattfari/sw6/pictocreator/source/PictoCreator/res/drawable-mdpi/cancel_button.png"
   inkscape:export-xdpi="145.34584"
   inkscape:export-ydpi="145.34584">
  <defs
     id="defs3965">
    <linearGradient
       id="linearGradient4528">
      <stop
         style="stop-color:#ff0000;stop-opacity:1;"
         offset="0"
         id="stop4530" />
      <stop
         style="stop-color:#ff0000;stop-opacity:0.46923077;"
         offset="1"
         id="stop4532" />
    </linearGradient>
    <linearGradient
       inkscape:collect="always"
       xlink:href="#linearGradient4528"
       id="linearGradient4534"
       x1="1.3674943"
       y1="32.101919"
       x2="61.686393"
       y2="32.101919"
       gradientUnits="userSpaceOnUse" />
    <linearGradient
       inkscape:collect="always"
       xlink:href="#linearGradient4528"
       id="linearGradient4542"
       gradientUnits="userSpaceOnUse"
       x1="1.3674943"
       y1="32.101919"
       x2="61.686393"
       y2="32.101919" />
  </defs>
  <sodipodi:namedview
     id="base"
     pagecolor="#ffffff"
     bordercolor="#666666"
     borderopacity="1.0"
     inkscape:pageopacity="0.0"
     inkscape:pageshadow="2"
     inkscape:zoom="7.7781746"
     inkscape:cx="55.255764"
     inkscape:cy="42.419647"
     inkscape:current-layer="layer1"
     showgrid="true"
     inkscape:document-units="px"
     inkscape:grid-bbox="true"
     inkscape:window-width="1680"
     inkscape:window-height="1026"
     inkscape:window-x="1920"
     inkscape:window-y="24"
     inkscape:window-maximized="1" />
  <metadata
     id="metadata3968">
    <rdf:RDF>
      <cc:Work
         rdf:about="">
        <dc:format>image/svg+xml</dc:format>
        <dc:type
           rdf:resource="http://purl.org/dc/dcmitype/StillImage" />
        <dc:title></dc:title>
      </cc:Work>
    </rdf:RDF>
  </metadata>
  <g
     id="layer1"
     inkscape:label="Layer 1"
     inkscape:groupmode="layer">
    <g
       id="g4538"
       transform="matrix(0.93958277,0,0,0.93958277,2.607713,1.8682872)">
      <path
         inkscape:connector-curvature="0"
         id="path4526"
         d="M 12.336201,61.332452 C 10.188365,58.508573 5.4563857,54.032972 1.9656643,51.523796 L 1.4806616,51.175169 2.6454443,50.152811 C 6.7959457,46.509816 12.472307,40.88639 15.584192,37.334724 c 1.988821,-2.269886 4.232361,-4.985591 4.232361,-5.123082 0,-0.149532 -4.353555,-4.898925 -7.071068,-7.713993 C 10.190518,21.850963 5.8678192,17.693881 2.9745552,15.101076 2.0906717,14.308982 1.3674943,13.6175 1.3674943,13.56445 c 0,-0.05305 0.6363961,-0.578385 1.4142136,-1.167411 3.3729847,-2.5542959 6.4012391,-5.5068057 8.7593571,-8.5402616 0.610248,-0.7850162 1.1536,-1.4273022 1.20745,-1.4273022 0.05385,0 0.837557,0.8099587 1.741572,1.7999082 6.284664,6.8820716 10.124123,10.6613126 15.132096,14.8947686 l 1.641762,1.38785 1.508077,-1.195691 c 2.142476,-1.698677 4.329947,-3.526393 6.264979,-5.234629 2.429988,-2.14518 7.989664,-7.7550663 9.827824,-9.916581 0.871922,-1.0253049 1.624978,-1.9088699 1.673456,-1.9634779 0.04848,-0.054608 0.384342,0.3503714 0.746364,0.8999541 2.180798,3.3106541 5.498961,6.6713097 9.010386,9.1257738 0.753163,0.526456 1.379218,0.996106 1.391234,1.043665 0.01202,0.04756 -0.82687,0.831617 -1.864191,1.742348 -5.03567,4.421141 -9.921487,9.324689 -12.761363,12.807673 -1.473695,1.807425 -3.459657,4.458248 -3.459657,4.617883 0,0.194285 4.054352,4.710178 7.223448,8.045757 1.545174,1.626345 4.569983,4.660376 6.721801,6.742291 l 3.912395,3.785299 -0.793496,0.439794 c -1.646349,0.912484 -3.305998,2.141486 -5.036404,3.729548 -1.743368,1.599959 -3.152502,3.334437 -4.542818,5.591674 l -0.757049,1.2291 -3.010385,-3.361017 C 43.617932,54.509727 39.393289,50.188758 36.988983,48.07628 c -1.762727,-1.548773 -5.06151,-4.181854 -5.241443,-4.183709 -0.100772,-10e-4 -2.425934,1.897316 -4.474225,3.652932 -5.369901,4.602611 -10.040463,9.28596 -13.280349,13.316705 -0.426276,0.53033 -0.837954,1.031211 -0.91484,1.113069 -0.103551,0.110247 -0.2959,-0.05641 -0.741925,-0.642825 z"
         style="fill:url(#linearGradient4542);fill-opacity:1;stroke:none" />
      <path
         inkscape:connector-curvature="0"
         id="path4536"
         d="M 50.589798,64.9429 C 50.52901,64.83867 48.744955,62.822036 46.62523,60.461491 40.850163,54.03032 36.151633,49.40371 32.74828,46.796952 l -0.973141,-0.745365 -0.675993,0.555215 c -3.992058,3.278818 -7.066551,6.078211 -10.451182,9.516032 -2.901233,2.946827 -4.246711,4.459445 -6.36414,7.154711 -1.208914,1.538824 -1.358461,1.685447 -1.507981,1.478496 -3.1882529,-4.41289 -6.5085354,-7.740819 -11.6976197,-11.724559 -1.21975916,-0.936428 -2.217744,-1.745446 -2.217744,-1.797817 0,-0.05237 0.99798484,-0.964718 2.217744,-2.02744 4.5745753,-3.985618 9.5944107,-8.933954 13.0863027,-12.899907 2.477993,-2.814406 3.351827,-3.889408 3.309,-4.070785 -0.05463,-0.231377 -2.971311,-3.417132 -5.80576,-6.341363 -3.2467734,-3.349618 -6.2776367,-6.2617 -10.1395656,-9.74219 -1.67937862,-1.513507 -3.0534157,-2.773543 -3.0534157,-2.800078 0,-0.02654 0.71841186,-0.5471 1.59647076,-1.156808 C 2.6941932,10.373774 4.3324614,9.0012532 6.6499077,6.6835825 8.8449593,4.4883183 10.147256,2.9537465 11.712055,0.71856045 l 0.830761,-1.18667249 0.342054,0.35599225 c 0.18813,0.19579574 1.315522,1.42629479 2.505315,2.73444229 3.420739,3.7610159 7.74347,8.2836925 9.523282,9.9637775 2.951908,2.786502 6.16775,5.592572 6.409261,5.592572 0.11602,0 2.039586,-1.52546 3.793044,-3.008026 5.378973,-4.547972 9.924694,-9.0938266 14.067593,-14.0680015 l 1.640489,-1.96965506 0.894931,1.43424309 C 54.826383,5.5475609 58.231141,8.956051 63.239003,12.10008 l 1.446021,0.907837 -2.860234,2.538134 c -7.337067,6.510819 -12.124531,11.44478 -15.37883,15.849425 -0.619366,0.838302 -0.671446,0.957483 -0.504735,1.155032 2.956989,3.503939 10.650921,11.448392 15.732416,16.24468 1.444496,1.363422 2.626357,2.515392 2.626357,2.559938 0,0.04454 -0.659835,0.43857 -1.4663,0.875614 -2.769227,1.500714 -4.537685,2.77796 -6.489945,4.687276 -1.975364,1.931913 -3.283567,3.735287 -4.806408,6.625694 -0.612287,1.162144 -0.866698,1.537817 -0.947547,1.39919 z M 14.035755,61.055056 c 3.864195,-4.7686 9.158633,-9.954101 15.616011,-15.294699 0.424264,-0.35089 1.068014,-0.886922 1.430556,-1.191185 l 0.659168,-0.553203 1.526435,1.18246 c 4.337097,3.359754 7.771447,6.702289 13.848401,13.478177 1.553713,1.732411 2.920041,3.252459 3.036286,3.377883 0.199248,0.214985 0.254293,0.156324 0.961233,-1.024407 2.362351,-3.945597 5.708468,-7.197616 9.875607,-9.59789 0.335876,-0.193464 0.610684,-0.399251 0.610684,-0.457305 0,-0.05805 -0.303735,-0.384199 -0.674966,-0.724768 C 56.656323,46.333865 50.499049,40.057863 46.201402,35.242436 l -2.49849,-2.799509 1.321365,-1.764544 c 3.436808,-4.589498 7.613296,-9.020637 13.29636,-14.107069 1.342902,-1.201918 2.726076,-2.4514 3.073719,-2.776626 L 62.026437,13.203368 61.13832,12.62193 C 57.481627,10.227942 54.273188,7.0916981 51.655361,3.3523541 51.122749,2.5915637 50.640244,1.9777168 50.583125,1.9882499 50.526008,1.9987829 50.164477,2.3916386 49.779725,2.8612624 46.585187,6.7604715 40.820124,12.47574 36.208574,16.315195 34.184118,18.000702 31.369422,20.236111 31.275,20.233398 31.17327,20.230476 28.567282,18.06031 27.209033,16.84742 23.632335,13.653497 20.047661,10.042698 14.99828,4.5476758 13.797799,3.2412441 12.778685,2.1723455 12.733581,2.1723455 c -0.0451,0 -0.546333,0.5965006 -1.113847,1.3255569 -2.8058162,3.6044907 -6.2663294,6.9327166 -9.7145881,9.3432216 -0.4790871,0.334905 -0.8539031,0.654198 -0.8329244,0.709539 0.020979,0.05534 1.2509843,1.190239 2.7333457,2.521997 3.5023025,3.146474 9.7134938,9.349535 13.1587708,13.141543 l 2.725894,3.000226 -1.11982,1.37098 C 14.428384,38.656437 8.9636032,44.308583 3.4314077,49.243467 2.7280824,49.870854 1.9515888,50.563594 1.7058662,50.782887 l -0.4467683,0.398716 1.3297624,1.015498 c 3.2796003,2.504528 7.1124453,6.135619 9.2522097,8.765191 0.591418,0.726797 1.116198,1.305339 1.166178,1.285649 0.04998,-0.01969 0.512808,-0.556489 1.028507,-1.192885 l 0,0 z"
         style="fill:#f9f9f9;fill-opacity:1;stroke:none" />
    </g>
  </g>
</svg>
