<?xml version="1.0" encoding="UTF-8" standalone="no"?>
<!-- Created with Inkscape (http://www.inkscape.org/) -->

<svg
   xmlns:dc="http://purl.org/dc/elements/1.1/"
   xmlns:cc="http://creativecommons.org/ns#"
   xmlns:rdf="http://www.w3.org/1999/02/22-rdf-syntax-ns#"
   xmlns:svg="http://www.w3.org/2000/svg"
   xmlns="http://www.w3.org/2000/svg"
   xmlns:sodipodi="http://sodipodi.sourceforge.net/DTD/sodipodi-0.dtd"
   xmlns:inkscape="http://www.inkscape.org/namespaces/inkscape"
   width="1000"
   height="1000"
   id="svg4875"
   version="1.1"
   inkscape:version="0.48.4 r9939"
   sodipodi:docname="New document 12">
  <defs
     id="defs4877">
    <filter
       inkscape:collect="always"
       id="filter5447">
      <feGaussianBlur
         inkscape:collect="always"
         stdDeviation="3.538828"
         id="feGaussianBlur5449" />
    </filter>
  </defs>
  <sodipodi:namedview
     id="base"
     pagecolor="#ffffff"
     bordercolor="#666666"
     borderopacity="1.0"
     inkscape:pageopacity="0.0"
     inkscape:pageshadow="2"
     inkscape:zoom="0.35"
     inkscape:cx="-127.85714"
     inkscape:cy="520"
     inkscape:document-units="px"
     inkscape:current-layer="layer1"
     showgrid="false"
     inkscape:window-width="1600"
     inkscape:window-height="847"
     inkscape:window-x="0"
     inkscape:window-y="0"
     inkscape:window-maximized="1" />
  <metadata
     id="metadata4880">
    <rdf:RDF>
      <cc:Work
         rdf:about="">
        <dc:format>image/svg+xml</dc:format>
        <dc:type
           rdf:resource="http://purl.org/dc/dcmitype/StillImage" />
        <dc:title></dc:title>
      </cc:Work>
    </rdf:RDF>
  </metadata>
  <g
     inkscape:label="Layer 1"
     inkscape:groupmode="layer"
     id="layer1"
     transform="translate(0,-52.362183)">
    <path
       style="fill:none;stroke:#000000;stroke-width:20;stroke-linecap:round;stroke-linejoin:round;stroke-miterlimit:4;stroke-opacity:1;stroke-dasharray:none;filter:url(#filter5447)"
       d="m 240,355.21932 c -0.95238,-3.80952 -1.39878,-7.78266 -2.85715,-11.42857 -0.50021,-1.25054 -2.11003,-1.73648 -2.85714,-2.85714 -1.18128,-1.77193 -1.67586,-3.94236 -2.85714,-5.71429 -1.49422,-2.24132 -3.80953,-3.80952 -5.71429,-5.71428 -2.85714,-2.85715 -5.71428,-5.71429 -8.57143,-8.57143 -2.85714,-2.85714 -5.71428,-5.71429 -8.57142,-8.57143 -0.95239,-0.95238 -1.73648,-2.11003 -2.85715,-2.85714 -1.77192,-1.18129 -4.20844,-1.3513 -5.71428,-2.85715 -2.42811,-2.4281 -3.56917,-5.89003 -5.71429,-8.57142 -3.36553,-4.20692 -7.61905,-7.61905 -11.42857,-11.42858 -0.95238,-0.95238 -2.2548,-1.65246 -2.85714,-2.85714 -2.95146,-5.90292 -2.85715,-8.65679 -2.85715,-14.28571 0,-1.90476 0.60234,-3.90727 0,-5.71429 -0.42591,-1.27775 -2.53047,-1.55049 -2.85714,-2.85714 -0.63612,-2.54447 0,-16.2058 0,-20 0,-4.76191 0,-9.52381 0,-14.28572 0,-1.90476 -0.60234,-3.90727 0,-5.71428 0.42592,-1.27775 2.35693,-1.60661 2.85714,-2.85714 1.45837,-3.64592 1.39878,-7.78266 2.85715,-11.42858 0.50021,-1.25053 2.11003,-1.73647 2.85714,-2.85714 4.50917,-6.76376 1.48823,-7.20252 8.57143,-14.28571 1.50585,-1.50585 4.20844,-1.3513 5.71428,-2.85715 2.42811,-2.4281 3.65397,-5.82434 5.71429,-8.57142 0.80812,-1.0775 2.11003,-1.73648 2.85714,-2.85715 1.18129,-1.77192 1.3513,-4.20844 2.85715,-5.71428 1.50584,-1.50585 3.94236,-1.67586 5.71428,-2.85715 1.12067,-0.7471 1.65247,-2.2548 2.85714,-2.85714 0.85184,-0.42592 2.00531,0.42592 2.85715,0 1.20467,-0.60234 1.65246,-2.2548 2.85714,-2.85714 0.85184,-0.42592 2.18371,0.67343 2.85714,0 0.67344,-0.67344 -0.67343,-2.18371 0,-2.85714 0.67344,-0.67344 1.90476,0 2.85715,0 0.95238,0 1.90476,0 2.85714,0 5.71428,0 11.42857,0 17.14286,0 2.85714,0 5.71428,0 8.57142,0 1.90477,0 3.84652,-0.37356 5.71429,0 2.95321,0.59064 5.75149,1.79966 8.57143,2.85714 5.17154,1.93933 14.30391,5.31652 20,8.57143 4.8216,2.7552 9.3187,6.08792 14.28571,8.57143 9.29273,4.64636 6.79623,0.72129 14.28572,5.71428 3.96214,2.64143 7.71015,5.59669 11.42857,8.57143 1.05173,0.84138 1.73648,2.11003 2.85714,2.85714 1.77193,1.18129 4.05136,1.5268 5.71429,2.85715 3.15518,2.52414 5.41624,6.04728 8.57143,8.57142 1.66292,1.33035 3.94236,1.67586 5.71428,2.85715 3.27622,2.18414 7.23208,9.64277 8.57143,11.42857 0.80812,1.07749 2.11003,1.73648 2.85714,2.85714 9.62249,14.43373 0.0221,0.0662 2.85715,8.57143 0.67343,2.02031 2.34064,3.64828 2.85714,5.71429 0.46197,1.84789 -0.60234,3.90727 0,5.71428 0.42592,1.27775 2.53048,1.55049 2.85714,2.85714 0.52977,2.1191 0,20.27859 0,22.85715 0,8.57143 0,17.14285 0,25.71428 0,2.85715 0.56033,5.76977 0,8.57143 -0.41765,2.08823 -2.43949,3.62605 -2.85714,5.71429 -1.10961,5.54803 0.92878,11.57014 0,17.14285 -0.64556,3.87334 -2.08704,7.57806 -2.85714,11.42858 -0.57525,2.87621 0,18.99688 0,20 0,7.61904 0,15.23809 0,22.85714 0,5.71428 0,11.42857 0,17.14286 0,1.90476 0,3.80952 0,5.71428 0,1.90476 -0.60234,3.90727 0,5.71429 0.42591,1.27775 2.11003,1.73648 2.85714,2.85714 0.3548,0.5322 5.5312,11.24549 5.71428,11.42857 0.67344,0.67344 2.43123,-0.85183 2.85715,0 5.05777,10.11554 -8.49964,1.95262 5.71428,11.42857 0.79243,0.52829 1.95364,-0.30117 2.85715,0 20.69547,6.89849 -4.5046,-0.82372 8.57142,5.71429 0.85184,0.42592 1.9332,-0.23099 2.85715,0 2.92177,0.73044 5.64965,2.1267 8.57143,2.85714 1.84789,0.46197 3.80952,0 5.71428,0 6.66667,0 13.33333,0 20,0 6.66667,0 13.33333,0 20,0 2.85714,0 5.76977,0.56033 8.57143,0 2.08823,-0.41765 3.64828,-2.34064 5.71429,-2.85714 1.84789,-0.46197 3.84651,0.37355 5.71428,0 24.05622,-4.81125 0.0883,-0.0441 11.42857,-5.71429 2.69374,-1.34687 5.87769,-1.51027 8.57143,-2.85714 1.20468,-0.60234 1.65247,-2.2548 2.85714,-2.85714 0.85184,-0.42592 2.09524,0.57143 2.85715,0 4.80962,-3.60722 9.79101,-9.79101 14.28571,-14.28572 2.85714,-2.85714 5.71429,-5.71428 8.57143,-8.57143 1.90476,-0.95238 4.05136,-1.5268 5.71429,-2.85714 3.15518,-2.52415 5.71428,-5.71428 8.57142,-8.57143 6.21779,-6.21779 9.2047,-9.52282 17.14286,-14.28571 7.05882,-4.2353 4.36975,-1.47899 11.42857,-5.71429 2.19467,-1.3168 10.5537,-7.63842 14.28572,-8.57143 1.84789,-0.46197 3.88281,0.52328 5.71428,0 4.9314,-1.40897 9.35432,-4.30531 14.28572,-5.71428 1.83147,-0.52328 3.82866,0.26937 5.71428,0 49.58237,-7.0832 -10.37984,0.93311 22.85715,-5.71429 1.86777,-0.37355 3.80952,0 5.71428,0 5.71429,0 11.42857,0 17.14286,0 4.7619,0 9.52381,0 14.28571,0 3.80953,0 7.67088,-0.62628 11.42857,0 2.10062,0.35011 3.73702,2.06624 5.71429,2.85715 17.65289,7.06115 0.8847,-0.98623 14.28571,5.71428 1.90477,0.95238 4.05136,1.5268 5.71429,2.85714 3.15519,2.52415 5.41624,6.04728 8.57143,8.57143 1.66293,1.33035 3.94236,1.67586 5.71428,2.85715 1.12067,0.7471 1.80542,2.01576 2.85715,2.85714 16.97945,13.58356 6.14039,3.28325 17.14285,14.28571 0.95239,0.95238 2.11004,1.73648 2.85715,2.85715 3.08041,4.62061 5.81622,9.46411 8.57143,14.28571 1.05657,1.849 1.67586,3.94236 2.85714,5.71429 2.64143,3.96214 5.52293,7.77037 8.57143,11.42857 0.35143,0.42172 11.33269,11.26078 11.42857,11.42857 3.59855,6.29747 4.21956,14.1975 8.57143,20 14.0815,18.77534 -4.32342,-16.52282 11.42857,22.85714 1.58182,3.95455 4.03651,7.51377 5.71428,11.42857 1.18637,2.76819 1.90477,5.71429 2.85715,8.57143 1.90476,5.71429 4.533,11.23644 5.71428,17.14286 0.74711,3.73554 -1.00235,7.75328 0,11.42857 1.90842,6.99755 6.66301,13.00245 8.57143,20 1.00235,3.67529 -0.62628,7.67088 0,11.42857 0.3501,2.10061 2.55597,3.6061 2.85714,5.71429 0.86655,6.06579 0,18.46824 0,25.71428 0,10.47619 0,20.95238 0,31.42857 0,3.80953 0.62629,7.67088 0,11.42858 -0.64555,3.87334 -2.30181,7.54127 -2.85714,11.42857 -0.40406,2.82842 0.56033,5.76977 0,8.57143 -0.41765,2.08823 -2.2721,3.66663 -2.85714,5.71428 -1.3341,4.66936 -1.67934,9.5745 -2.85714,14.28572 -3.85533,15.42132 -1.28064,2.46265 -5.71429,14.28571 -2.11495,5.63987 -3.80952,11.42857 -5.71429,17.14286 -0.95238,2.85714 -1.63397,5.81931 -2.85714,8.57143 -14.8623,33.44017 -0.7807,2.9457 -20,28.57142 -2.5555,3.40735 -3.80952,7.61905 -5.71428,11.42858 -3.80953,5.71428 -7.13835,11.78007 -11.42858,17.14285 -3.36553,4.20692 -8.57321,6.86 -11.42857,11.42857 -2.08118,3.3299 -0.95013,7.99596 -2.85714,11.42858 -31.93127,57.47628 8.02338,-24.46657 -22.85714,25.71428 -4.91597,7.98844 -6.35634,17.82415 -11.42857,25.71429 -3.64166,5.66479 -9.90306,9.17261 -14.28572,14.28571 -1.38592,1.61691 -1.5497,4.03329 -2.85714,5.71429 -0.61352,0.78881 -23.22729,28.08848 -28.57143,31.42857 -3.32989,2.08118 -7.91636,1.10104 -11.42857,2.85714 -4.25918,2.12959 -6.96986,6.89941 -11.42857,8.57143 -3.56697,1.33761 -7.73279,-0.92395 -11.42857,0 -26.73524,13.36762 1.38434,1.43742 -20,5.71429 -2.08824,0.41764 -3.75689,2.01825 -5.71429,2.85714 -4.71405,2.0203 -9.31012,4.47038 -14.28571,5.71428 -5.54368,1.38592 -11.4727,-0.70877 -17.14286,0 -4.81871,0.60234 -9.45361,2.37394 -14.28572,2.85715 -4.73827,0.47382 -9.52381,0 -14.28571,0 -3.80952,0 -7.61905,0 -11.42857,0 -17.14286,0 -34.28572,0 -51.42857,0 -5.71429,0 -11.42857,0 -17.14286,0 -3.80952,0 -7.67088,0.62628 -11.42857,0 -7.74668,-1.29112 -15.2381,-3.80953 -22.85714,-5.71429 -3.80953,-0.95238 -7.75183,-1.47836 -11.42858,-2.85714 -3.98799,-1.4955 -7.38796,-4.36742 -11.42857,-5.71429 -7.45051,-2.4835 -15.17793,-4.06874 -22.85714,-5.71428 -5.66451,-1.21383 -11.64703,-1.0252 -17.14286,-2.85715 -6.06091,-2.0203 -11.21103,-6.1987 -17.14285,-8.57142 -3.64592,-1.45837 -7.81931,-1.31032 -11.42858,-2.85715 -3.15621,-1.35266 -5.59,-4.01061 -8.57142,-5.71428 -3.69801,-2.11315 -8.10272,-3.0536 -11.42858,-5.71429 -1.66292,-1.33034 -1.67586,-3.94236 -2.85714,-5.71428 -0.74711,-1.12067 -1.90476,-1.90477 -2.85714,-2.85715 -2.85714,-2.85714 -6.04728,-5.41624 -8.57143,-8.57143 -1.33034,-1.66292 -1.76148,-3.88817 -2.85714,-5.71428 -1.76671,-2.94451 -3.94758,-5.62692 -5.71429,-8.57143 -2.19133,-3.65221 -3.60114,-7.73057 -5.71428,-11.42857 -2.75521,-4.82161 -6.08793,-9.3187 -8.57143,-14.28572 -0.42592,-0.85183 0.42591,-2.0053 0,-2.85714 -1.53567,-3.07133 -4.01062,-5.59 -5.71429,-8.57143 -4.77553,-8.35717 -14.64411,-28.39724 -17.14286,-37.14285 -0.52327,-1.83148 0.46198,-3.8664 0,-5.71429 -2.65116,-10.60466 -7.05983,-17.99027 -8.57142,-28.57143 -0.40407,-2.82843 0.35438,-5.73635 0,-8.57143 -0.60234,-4.81871 -2.25481,-9.467 -2.85715,-14.28571 -0.35438,-2.83508 0,-5.71429 0,-8.57143 0,-4.7619 0,-9.52381 0,-14.28571 0,-1.92142 -0.42654,-18.29383 0,-20 0.32667,-1.30666 2.11004,-1.73648 2.85715,-2.85715 1.18128,-1.77192 1.67586,-3.94236 2.85714,-5.71428 0.74711,-1.12067 2.2548,-1.65247 2.85714,-2.85715 0.42592,-0.85183 -0.52828,-2.06471 0,-2.85714 1.49422,-2.24133 4.09804,-3.55929 5.71429,-5.71428 1.27775,-1.70368 1.35129,-4.20844 2.85714,-5.71429 0.67344,-0.67344 2.32886,0.79243 2.85714,0 2.63232,-3.94847 1.01858,-9.08072 5.71429,-11.42857 0.85183,-0.42592 2.00531,0.42592 2.85714,0 5.68889,-2.84445 0.0254,-2.86984 5.71429,-5.71429 0.85183,-0.42591 1.90476,0 2.85714,0 0.95238,-0.95238 1.65247,-2.2548 2.85714,-2.85714 0.81772,-0.40886 12.75939,0 14.28572,0 4.7619,0 9.52381,0 14.28571,0 1.90476,0 3.80953,0 5.71429,0 0.95238,0 1.93319,-0.23099 2.85714,0 2.92177,0.73044 5.64966,2.1267 8.57143,2.85714 0.92394,0.23099 2.00531,-0.42591 2.85714,0 1.20468,0.60234 1.65247,2.25481 2.85714,2.85715 2.28572,1.14285 6.28572,-1.14286 8.57143,0 2.81151,1.40575 8.61706,10.02281 11.42857,11.42857 0.85184,0.42591 2.00531,-0.42592 2.85715,0 1.20467,0.60234 2.85714,1.51027 2.85714,2.85714 0,1.34687 -1.90476,3.80952 -2.85714,2.85714 -0.95238,-0.95238 1.90476,-1.90476 2.85714,-2.85714"
       id="path4885"
       inkscape:connector-curvature="0" />
  </g>
</svg>
