<?xml version="1.0" encoding="UTF-8" standalone="no"?>
<!-- Created with Inkscape (http://www.inkscape.org/) -->

<svg
   xmlns:dc="http://purl.org/dc/elements/1.1/"
   xmlns:cc="http://creativecommons.org/ns#"
   xmlns:rdf="http://www.w3.org/1999/02/22-rdf-syntax-ns#"
   xmlns:svg="http://www.w3.org/2000/svg"
   xmlns="http://www.w3.org/2000/svg"
   xmlns:xlink="http://www.w3.org/1999/xlink"
   xmlns:sodipodi="http://sodipodi.sourceforge.net/DTD/sodipodi-0.dtd"
   xmlns:inkscape="http://www.inkscape.org/namespaces/inkscape"
   width="64px"
   height="64px"
   id="svg3104"
   version="1.1"
   inkscape:version="0.48.4 r9939"
   sodipodi:docname="ok_button.svg"
   inkscape:export-filename="/home/nattfari/sw6/pictocreator/source/PictoCreator/res/drawable-mdpi/ok_button.png"
   inkscape:export-xdpi="145.34584"
   inkscape:export-ydpi="145.34584">
  <defs
     id="defs3106">
    <linearGradient
       id="linearGradient3920">
      <stop
         style="stop-color:#55d400;stop-opacity:1;"
         offset="0"
         id="stop3922" />
      <stop
         style="stop-color:#55d400;stop-opacity:0;"
         offset="1"
         id="stop3924" />
    </linearGradient>
    <linearGradient
       inkscape:collect="always"
       xlink:href="#linearGradient3920"
       id="linearGradient3926"
       x1="0.8256554"
       y1="32.285774"
       x2="63.416565"
       y2="32.285774"
       gradientUnits="userSpaceOnUse"
       spreadMethod="repeat" />
    <linearGradient
       inkscape:collect="always"
       xlink:href="#linearGradient3920"
       id="linearGradient3942"
       gradientUnits="userSpaceOnUse"
       spreadMethod="repeat"
       x1="0.8256554"
       y1="32.285774"
       x2="63.416565"
       y2="32.285774" />
  </defs>
  <sodipodi:namedview
     id="base"
     pagecolor="#ffffff"
     bordercolor="#666666"
     borderopacity="1.0"
     inkscape:pageopacity="0.0"
     inkscape:pageshadow="2"
     inkscape:zoom="7.7781746"
     inkscape:cx="43.544092"
     inkscape:cy="38.473327"
     inkscape:current-layer="layer1"
     showgrid="true"
     inkscape:document-units="px"
     inkscape:grid-bbox="true"
     inkscape:window-width="840"
     inkscape:window-height="998"
     inkscape:window-x="1921"
     inkscape:window-y="24"
     inkscape:window-maximized="0" />
  <metadata
     id="metadata3109">
    <rdf:RDF>
      <cc:Work
         rdf:about="">
        <dc:format>image/svg+xml</dc:format>
        <dc:type
           rdf:resource="http://purl.org/dc/dcmitype/StillImage" />
        <dc:title></dc:title>
      </cc:Work>
    </rdf:RDF>
  </metadata>
  <g
     id="layer1"
     inkscape:label="Layer 1"
     inkscape:groupmode="layer">
    <g
       id="g3938"
       transform="matrix(0.95119383,0,0,0.95119383,1.6342443,1.9900402)">
      <path
         inkscape:connector-curvature="0"
         id="path3910"
         d="M 23.589115,59.324891 C 14.900953,48.929661 9.0300439,42.989695 2.9570152,38.450105 2.0792631,37.793985 1.2406267,37.169146 1.0933788,37.061573 L 0.82565542,36.865988 2.1963225,35.470664 c 1.4387666,-1.464647 2.2135606,-2.364774 3.2845713,-3.815892 0.6218185,-0.842504 2.1605848,-3.116661 2.7140294,-4.011086 0.1469028,-0.237411 0.2921842,-0.431729 0.3228477,-0.431818 0.030663,-9e-5 3.4200251,3.436201 7.5319151,7.636201 4.11189,4.2 7.49015,7.636363 7.507244,7.636363 0.03574,0 2.346814,-3.701271 3.859928,-6.181818 2.809402,-4.605637 5.484211,-8.310422 8.631035,-11.954545 4.368264,-5.058593 10.765052,-11.331411 18.560528,-18.2008252 l 1.873674,-1.651092 0.33915,0.7895948 c 1.170402,2.7248875 3.232338,5.9991204 5.810473,9.2266904 0.431666,0.540403 0.784847,1.016469 0.784847,1.057926 0,0.04146 -0.419319,0.415562 -0.931819,0.831345 -8.007059,6.495987 -15.932678,14.312684 -22.620875,22.309997 -5.017427,5.999514 -10.362615,13.31325 -14.666076,20.067358 -0.43776,0.687047 -0.829295,1.269799 -0.870078,1.295005 -0.04078,0.0252 -0.373154,-0.311925 -0.738602,-0.749177 l 0,0 z"
         style="fill:url(#linearGradient3942);fill-opacity:1;stroke:none" />
      <path
         inkscape:connector-curvature="0"
         id="path3928"
         d="M 23.121702,60.325192 C 13.319597,48.595537 7.1178644,42.471118 0.13515374,37.625203 l -0.8952832,-0.621315 1.62741683,-1.600637 C 2.524158,33.773645 3.2094192,32.997682 4.4836964,31.308171 c 0.7641667,-1.013176 2.6148499,-3.753439 3.3649223,-4.98236 0.25,-0.4096 0.4804582,-0.735792 0.5121291,-0.724871 0.031671,0.01092 3.4005972,3.435765 7.4865032,7.610765 4.085906,4.175 7.462479,7.60348 7.503495,7.618845 0.04102,0.01536 0.72209,-1.018325 1.513497,-2.297087 4.019683,-6.495037 4.789226,-7.66736 6.745631,-10.276303 4.833904,-6.446201 12.082067,-13.846071 22.738745,-23.2146739 l 2.5,-2.1978245 0.156588,0.3426126 c 0.08612,0.188437 0.425186,0.956249 0.753472,1.706249 1.305604,2.9827716 3.550798,6.4744218 6.313268,9.8181818 0.330463,0.4 0.651672,0.794083 0.713798,0.87574 0.09811,0.128949 -0.03973,0.271842 -1.048448,1.086928 -7.416356,5.992706 -14.274226,12.56347 -20.485886,19.628241 -6.114891,6.954715 -12.027805,14.898364 -17.71232,23.795455 -0.61496,0.9625 -1.124162,1.749932 -1.131562,1.749851 -0.0074,-8.3e-5 -0.586022,-0.68531 -1.285827,-1.522728 z m 2.364564,-1.795305 c 2.506729,-3.953877 6.289018,-9.350293 9.498254,-13.551718 6.796147,-8.897294 14.422962,-17.092018 22.636826,-24.322412 1.561363,-1.374417 4.449562,-3.805815 5.431818,-4.572717 0.3125,-0.243986 0.568182,-0.45947 0.568182,-0.478852 0,-0.01938 -0.320771,-0.432666 -0.712825,-0.918408 C 60.252196,11.394679 58.193427,8.1654206 56.984372,5.3935232 56.777186,4.9185232 56.573607,4.4947927 56.531975,4.4518998 56.320733,4.2342592 46.073819,13.654033 41.848125,17.950455 35.137213,24.773692 31.566769,29.299899 27.012681,36.75716 c -2.20298,3.607352 -3.432304,5.547058 -3.500143,5.52275 -0.03492,-0.01251 -3.405558,-3.438659 -7.490307,-7.61366 -4.084749,-4.175 -7.456575,-7.602773 -7.4929477,-7.617274 -0.036373,-0.0145 -0.2021618,0.190044 -0.3684196,0.454545 -2.2451763,3.571866 -4.1616106,6.062142 -6.2745252,8.15332 -0.6457459,0.639103 -1.1740834,1.18555 -1.1740834,1.214329 0,0.02878 0.21477273,0.206519 0.4772727,0.394981 6.9310715,4.97617 12.7066262,10.68091 21.9251162,21.656291 0.945627,1.125847 1.190918,1.369607 1.280728,1.272728 0.0611,-0.06591 0.552,-0.815283 1.090894,-1.665283 z"
         style="fill:#f9f9f9;fill-opacity:1;stroke:none" />
    </g>
  </g>
</svg>
