<?xml version="1.0" encoding="UTF-8" standalone="no"?>
<!-- Created with Inkscape (http://www.inkscape.org/) -->

<svg
   xmlns:dc="http://purl.org/dc/elements/1.1/"
   xmlns:cc="http://creativecommons.org/ns#"
   xmlns:rdf="http://www.w3.org/1999/02/22-rdf-syntax-ns#"
   xmlns:svg="http://www.w3.org/2000/svg"
   xmlns="http://www.w3.org/2000/svg"
   xmlns:xlink="http://www.w3.org/1999/xlink"
   xmlns:sodipodi="http://sodipodi.sourceforge.net/DTD/sodipodi-0.dtd"
   xmlns:inkscape="http://www.inkscape.org/namespaces/inkscape"
   width="64px"
   height="64px"
   id="svg2985"
   version="1.1"
   inkscape:version="0.48.4 r9939"
   sodipodi:docname="save_button.svg"
   inkscape:export-filename="/home/nattfari/sw6/pictocreator/source/PictoCreator/res/drawable-mdpi/save_button.png"
   inkscape:export-xdpi="170.07024"
   inkscape:export-ydpi="170.07024">
  <defs
     id="defs2987">
    <linearGradient
       id="linearGradient3816">
      <stop
         style="stop-color:#b3b3b3;stop-opacity:1;"
         offset="0"
         id="stop3818" />
      <stop
         style="stop-color:#b3b3b3;stop-opacity:0.30769232;"
         offset="1"
         id="stop3820" />
    </linearGradient>
    <linearGradient
       inkscape:collect="always"
       xlink:href="#linearGradient3816"
       id="linearGradient3826"
       x1="20.2995"
       y1="18.349075"
       x2="42.764099"
       y2="18.349075"
       gradientUnits="userSpaceOnUse" />
  </defs>
  <sodipodi:namedview
     id="base"
     pagecolor="#ffffff"
     bordercolor="#666666"
     borderopacity="1.0"
     inkscape:pageopacity="0.0"
     inkscape:pageshadow="2"
     inkscape:zoom="11"
     inkscape:cx="36.759709"
     inkscape:cy="42.383103"
     inkscape:current-layer="layer1"
     showgrid="true"
     inkscape:document-units="px"
     inkscape:grid-bbox="true"
     inkscape:window-width="1871"
     inkscape:window-height="1056"
     inkscape:window-x="49"
     inkscape:window-y="24"
     inkscape:window-maximized="1" />
  <metadata
     id="metadata2990">
    <rdf:RDF>
      <cc:Work
         rdf:about="">
        <dc:format>image/svg+xml</dc:format>
        <dc:type
           rdf:resource="http://purl.org/dc/dcmitype/StillImage" />
        <dc:title></dc:title>
      </cc:Work>
    </rdf:RDF>
  </metadata>
  <g
     id="layer1"
     inkscape:label="Layer 1"
     inkscape:groupmode="layer">
    <path
       style="fill:#000000;fill-opacity:1;stroke:none"
       d="m 14.501731,53.113475 c -2.16118,-0.281986 -3.325199,-1.255676 -3.871636,-3.238581 -0.190959,-0.692951 -0.197677,-0.909698 -0.260134,-8.393138 -0.03526,-4.225 -0.06889,-11.880918 -0.07472,-17.013151 -0.01052,-9.25803 -0.0091,-9.336229 0.181639,-9.954546 0.613709,-1.9895 1.682059,-3.109675 3.359018,-3.521961 0.473174,-0.116332 1.09638,-0.146705 3.010105,-0.146705 l 2.413388,0 -0.04461,3.795454 c -0.08397,7.144506 0.279668,9.467234 1.712458,10.938225 0.492669,0.505804 1.069569,0.813279 1.948305,1.038402 0.58068,0.148765 1.121607,0.161946 6.181818,0.150642 3.05,-0.0068 6.547727,0.02049 7.772727,0.06067 3.964574,0.130043 5.07278,-0.0776 5.99008,-1.122347 0.327512,-0.373015 0.55741,-0.852448 0.795456,-1.658864 0.134759,-0.456514 0.160828,-1.27888 0.212462,-6.702181 0.03237,-3.4 0.06652,-6.192046 0.07588,-6.204546 0.0094,-0.0125 0.75317,-0.02273 1.6529,-0.02273 l 1.635872,0 1.068674,0.944738 c 1.385793,1.22508 2.344025,2.214594 3.408062,3.519317 l 0.860351,1.054964 0.06396,16.172309 c 0.05637,14.254017 0.04758,16.26429 -0.07412,16.947771 -0.453216,2.545332 -1.393436,3.336816 -4.075937,3.431156 l -1.25,0.04396 0,-9.511652 0,-9.511654 -10.939583,0 c -6.016771,0 -13.160412,0.02721 -15.874758,0.06047 l -4.935176,0.06047 0.05715,6.325897 c 0.03143,3.479245 0.08239,7.727035 0.113233,9.439535 l 0.05608,3.113636 -0.306656,-0.01153 c -0.168661,-0.0063 -0.556691,-0.04415 -0.862288,-0.08403 l 0,0 z"
       id="path3036"
       inkscape:connector-curvature="0" />
    <path
       style="fill:#4d4d4d;fill-opacity:1;stroke:none"
       d="m 17.614545,50.095393 c -0.03015,-1.7125 -0.07973,-5.71488 -0.11017,-8.894178 l -0.05535,-5.780542 3.485986,-0.06024 c 1.917292,-0.03313 8.56894,-0.0603 14.78144,-0.06037 l 11.295455,-1.29e-4 0,0.363636 0,0.363637 -14.272728,0 -14.272727,0 0,8.590909 0,8.590909 -0.398543,0 -0.398542,0 -0.05482,-3.113636 0,0 z"
       id="path3038"
       inkscape:connector-curvature="0" />
    <path
       style="fill:#000000;fill-opacity:1;stroke:none"
       d="m 35.802198,23.032722 c -0.61986,-0.317063 -0.598586,-0.168513 -0.666685,-4.655176 -0.0654,-4.309098 -0.03842,-4.697648 0.350792,-5.05033 0.158895,-0.143983 0.400629,-0.167054 2.012187,-0.192047 2.257433,-0.03501 2.395144,-0.01383 2.565771,0.394536 0.195862,0.468764 0.191037,8.7511 -0.0053,9.130812 -0.193641,0.37446 -0.515438,0.439979 -2.354117,0.479312 -1.342958,0.02873 -1.67344,0.01012 -1.902628,-0.107107 l 0,0 z"
       id="path3042"
       inkscape:connector-curvature="0" />
    <path
       style="fill:#ececec;fill-opacity:1;stroke:none"
       d="m 18.648271,45.163574 0,-8.045454 13.727273,0 13.727273,0 0,8.045454 0,8.045455 -13.727273,0 -13.727273,0 0,-8.045455 z"
       id="path3044"
       inkscape:connector-curvature="0" />
    <path
       style="fill:url(#linearGradient3826);fill-opacity:1;stroke:none"
       d="m 36.73918,25.744101 c -1.125,-0.03852 -4.561363,-0.06842 -7.636363,-0.06645 -5.977199,0.0038 -5.879276,0.01037 -6.788311,-0.453386 -1.190107,-0.607147 -1.723564,-2.044111 -1.946225,-5.242512 -0.108894,-1.564196 -0.0816,-8.986892 0.03347,-9.10196 0.06441,-0.06441 22.313933,0.08544 22.355733,0.150563 0.01494,0.02327 0.0037,2.80367 -0.02488,6.17867 -0.05547,6.541763 -0.05292,6.505109 -0.515335,7.409091 -0.237569,0.464432 -0.417248,0.623263 -0.975997,0.862755 -0.380046,0.162896 -1.98838,0.398004 -2.365723,0.345824 -0.05,-0.0069 -1.011364,-0.04408 -2.136364,-0.0826 l 0,0 z m 2.642945,-1.57258 c 0.882119,-0.05787 1.538313,-0.538224 1.799046,-1.316967 0.140729,-0.420321 0.144177,-8.810376 0.0039,-9.464514 -0.124433,-0.580209 -0.604074,-1.1167 -1.127698,-1.261357 -0.213233,-0.05891 -1.17463,-0.100668 -2.324409,-0.100965 -2.797195,-7.28e-4 -3.085501,0.114435 -3.548142,1.417235 -0.186854,0.52618 -0.189473,0.623852 -0.132346,4.935347 0.06436,4.857413 0.03773,4.648996 0.671538,5.256656 0.596337,0.571739 0.941595,0.650717 2.651541,0.606545 0.825,-0.02131 1.727962,-0.0537 2.006581,-0.07198 l -2e-6,0 z"
       id="path3046"
       inkscape:connector-curvature="0" />
    <path
       style="fill:#000000;stroke:#000000;stroke-width:1.35057068px;stroke-linecap:butt;stroke-linejoin:miter;stroke-opacity:1"
       d="m 15.629703,52.529535 32.013323,-0.05907"
       id="path3828"
       inkscape:connector-curvature="0" />
    <path
       style="fill:#0000ff;fill-opacity:1;stroke:none"
       d="M 14.254155,52.999104 C 13.312233,52.846354 12.016593,52.198593 11.624332,51.684313 11.45002,51.455777 11.147749,50.92411 10.95262,50.50283 c -0.350729,-0.757215 -0.355794,-0.80562 -0.443409,-4.237217 -0.04875,-1.909188 -0.09389,-9.698946 -0.100315,-17.310573 -0.01136,-13.45238 -0.0046,-13.862392 0.243159,-14.664418 0.305759,-0.989931 1.081174,-2.116551 1.770907,-2.572995 0.897666,-0.594047 1.481286,-0.706374 4.177502,-0.804028 l 2.539156,-0.09197 0,4.043303 c 0,6.093102 0.229455,8.218836 1.054172,9.766165 0.537522,1.008494 1.237054,1.590664 2.285543,1.902093 0.788732,0.234274 1.366599,0.251183 9.70962,0.284112 l 8.870976,0.03501 0.72167,-0.338393 c 0.804968,-0.377452 1.319383,-0.941149 1.70508,-1.868432 0.240717,-0.578724 0.267112,-1.062801 0.382639,-7.017704 l 0.124087,-6.396103 1.64771,0 1.647711,0 1.91468,1.896332 c 1.053074,1.042983 2.202053,2.249428 2.553287,2.68099 l 0.638606,0.784659 0.08541,6.672104 c 0.136968,10.700178 0.105949,25.391238 -0.05581,26.433825 -0.328344,2.116231 -1.071854,2.970578 -2.875331,3.30397 -0.937014,0.173215 -34.225818,0.169008 -35.295508,-0.0045 z m 17.235085,-1.140919 15.806087,0 0,-8.870976 0,-8.870976 -7.242701,0 c -3.983486,0 -11.157406,0.03843 -15.942044,0.0854 l -8.699343,0.08539 0,2.529032 c 0,3.725337 0.186334,16.224954 0.232381,15.588529 l 0.03953,-0.546401 15.806087,0 z"
       id="path3851"
       inkscape:connector-curvature="0" />
    <path
       style="fill:#0000aa;fill-opacity:1;stroke:none"
       d="m 35.753835,22.907817 c -0.160636,-0.08089 -0.334198,-0.296776 -0.385694,-0.479739 -0.0515,-0.182963 -0.09363,-2.225196 -0.09363,-4.538295 0,-3.780397 0.02201,-4.227677 0.217725,-4.423634 0.184842,-0.185073 0.518641,-0.219789 2.210058,-0.229853 1.475545,-0.0088 2.036011,0.03149 2.160725,0.155237 0.132407,0.131384 0.168392,1.126327 0.168392,4.655833 0,4.136421 -0.01801,4.506766 -0.229407,4.718374 -0.194638,0.19483 -0.496653,0.234143 -1.992755,0.259394 -1.126039,0.019 -1.868908,-0.0234 -2.055415,-0.117317 z"
       id="path3853"
       inkscape:connector-curvature="0" />
    <path
       style="fill:#0000aa;fill-opacity:1;stroke:none"
       d="m 14.348855,52.88842 c -0.777486,-0.101445 -2.221979,-0.734469 -2.563698,-1.123496 -0.110223,-0.125483 -0.390983,-0.598 -0.623912,-1.050039 -0.41219,-0.799924 -0.426407,-0.881177 -0.532015,-3.040525 -0.05968,-1.22025 -0.09291,-9.182652 -0.07384,-17.694225 l 0.03467,-15.475588 0.418697,-0.850426 c 0.506379,-1.02852 1.269293,-1.844692 2.045103,-2.18787 0.610842,-0.270204 2.005629,-0.434242 4.575126,-0.538072 l 1.510637,-0.06104 0.0021,4.26421 c 0.0035,7.179346 0.283562,8.917137 1.681335,10.433541 0.279442,0.30316 0.810483,0.685016 1.180091,0.84857 0.633877,0.280494 0.887258,0.302557 4.464679,0.388771 2.085965,0.05027 6.238927,0.09657 9.228803,0.102886 l 5.43614,0.01148 0.606409,-0.309932 c 0.782134,-0.399744 1.35661,-1.006355 1.715431,-1.811388 0.270415,-0.606691 0.292692,-0.895759 0.396307,-5.142595 0.06038,-2.474874 0.142993,-5.382047 0.183578,-6.460384 l 0.07379,-1.96061 1.577289,0 1.57729,0 2.041132,2.091981 c 1.122622,1.15059 2.271115,2.372923 2.552205,2.716297 l 0.511073,0.624317 0.06747,11.843674 c 0.03711,6.514022 0.03608,14.042134 -0.0023,16.729139 -0.06767,4.738801 -0.07883,4.908622 -0.371865,5.656855 -0.347625,0.887632 -1.007689,1.590274 -1.75063,1.863558 -0.433419,0.159428 -3.044126,0.189702 -17.86386,0.207155 -9.545942,0.01124 -17.689695,-0.02307 -18.09723,-0.07624 l 7e-6,0 z m 17.193133,-1.030235 15.753339,0 0,-8.870976 0,-8.870976 -12.449905,0 c -6.847448,0 -14.021367,0.03822 -15.942044,0.08494 l -3.492139,0.08494 2.32e-4,5.282644 c 2.95e-4,6.643662 0.137482,12.937373 0.273954,12.568453 l 0.103223,-0.279023 15.75334,0 z"
       id="path3855"
       inkscape:connector-curvature="0" />
  </g>
</svg>
